<svg version="1.1" xmlns="http://www.w3.org/2000/svg" width="256" height="256" viewBox="0 0 256 256">
  <rect fill="white" x="0" y="0" rx="16" ry="16" width="256" height="256" mask="url(#mask)" />
  <mask id="mask">
    <rect fill="white" x="0" y="0" rx="16" ry="16" width="256" height="256" />
    <rect fill="black" x="9" y="9" rx="12" ry="12" width="238" height="238" />
    <g transform="translate(15,15) scale(0.1094,0.1094)"><g transform="translate(0,0)"><g transform="scale(1,-1) translate(0,-820)"><path stroke="none" fill="white" d="M36 702Q36 743 55 762Q73 781 114 781H247Q303 781 303 740Q303 700 247 700H156Q132 700 121 693Q110 685 110 670V648H247Q303 648 303 611Q303 574 247 574H110V552Q110 535 121 527Q132 519 156 519H247Q303 519 303 481Q303 443 247 443H114Q73 443 55 462Q36 481 36 521V702V702ZM367 696Q319 725 344 760Q369 795 418 765L490 720L554 761Q601 792 625 758Q648 723 598 696L568 680L600 662Q623 649 632 640Q643 630 643 620V592Q643 582 632 571Q623 562 600 550L568 531L617 503Q665 476 636 445Q607 414 560 447L490 499L414 445Q367 413 340 443Q313 473 361 503L404 529L371 550Q351 563 342 573Q333 582 333 592V620Q333 629 343 638Q352 648 373 660L404 676L367 696V696ZM739 781H878Q919 781 937 762Q956 743 956 702V519Q956 479 937 460Q919 441 878 441H733Q676 441 676 479Q676 517 733 517H836Q860 517 872 525Q884 534 884 552V574H739Q682 574 682 611Q682 648 739 648H884V670Q884 685 872 692Q860 698 836 698H739Q682 698 682 739Q682 781 739 781V781V781ZM484 638L422 604L482 568L544 606L484 638V638ZM36 330Q36 372 55 391Q73 409 114 409H878Q919 409 937 391Q956 372 956 330V-99Q956 -154 920 -154Q884 -154 884 -99V288Q884 312 872 323Q860 334 836 334H156Q132 334 121 323Q110 312 110 288V-99Q110 -154 73 -154Q36 -154 36 -99V330V330ZM221 260V103Q221 79 232 67Q243 55 267 55H458V89H347Q305 89 287 108Q269 127 269 168V214Q269 256 287 274Q305 292 347 292H641Q682 292 700 274Q719 256 719 214V168Q719 127 700 108Q681 89 641 89H530V55H721Q745 55 757 67Q769 79 769 103V260Q769 317 806 317Q842 317 842 260V53Q842 11 823 -6Q804 -24 763 -24H530V-69Q530 -109 511 -128Q492 -147 452 -147H194Q137 -147 137 -111Q137 -75 194 -75H410Q433 -75 446 -67Q458 -60 458 -46V-24H225Q182 -24 164 -6Q146 11 146 53V260Q146 317 183 317Q221 317 221 260V260V260ZM349 194V172H637V194Q637 208 624 215Q613 222 588 222H395Q370 222 360 215Q349 208 349 194V194V194V195V194Z" /></g></g><g transform="translate(1024,0)"><g transform="scale(1,-1) translate(0,-820)"><path stroke="none" fill="white" d="M102 781H293Q334 781 353 762Q371 743 371 702V-91Q371 -146 331 -146Q291 -146 291 -91V495H156Q132 495 121 484Q110 473 110 449V-93Q110 -148 73 -148Q36 -148 36 -93V497Q36 539 55 558Q73 576 114 576H291V652Q291 676 279 687Q267 698 243 698H102Q46 698 46 739Q46 781 102 781V781V781ZM494 781H886Q942 781 942 740Q942 700 886 700H494Q437 700 437 740Q437 781 494 781V781V781ZM466 640H894Q942 640 942 600Q942 560 894 560H892V515Q892 475 873 456Q854 437 814 437H725V389H886Q942 389 942 344Q942 300 886 300H725V192H884V234Q884 270 920 270Q956 270 956 234V-69Q956 -109 937 -128Q919 -147 878 -147H508Q466 -147 448 -128Q430 -110 430 -69V208Q430 265 466 265Q502 265 502 208V192H653V300H494Q437 300 437 344Q437 389 494 389H653V437H578Q537 437 518 456Q500 474 500 515V560H466Q436 560 436 600Q436 640 466 640V640V640ZM566 560V539Q566 525 577 518Q588 511 613 511H763Q786 511 799 518Q812 525 812 539V560H566V560ZM502 111V-26Q502 -50 513 -62Q524 -75 548 -75H836Q860 -75 872 -62Q884 -50 884 -26V111H502V111V112V111Z" /></g></g><g transform="translate(0,1024)"><g transform="scale(1,-1) translate(0,-820)"><path stroke="none" fill="white" d="M530 734V479H878Q919 479 937 461Q956 443 956 401V-95Q956 -150 920 -150Q884 -150 884 -95V361Q884 385 878 396Q871 407 858 407H840V204Q840 163 821 144Q802 125 761 125H530V61H781Q837 61 837 21Q837 -18 781 -18H530V-83H785Q841 -83 841 -119Q841 -155 785 -155H207Q149 -155 149 -119Q149 -83 207 -83H458V-18H209Q151 -18 151 21Q151 61 209 61H458V125H231Q189 125 170 144Q152 163 152 204V407H134Q121 407 115 396Q110 385 110 361V-97Q110 -152 73 -152Q36 -152 36 -97V401Q36 443 55 461Q73 479 114 479H458V734Q458 790 494 790Q530 790 530 734V734V734ZM96 773H351Q392 773 411 754Q430 735 430 694V592Q430 551 411 532Q392 513 351 513H94Q38 513 38 551Q38 588 94 588H307Q331 588 343 595Q355 603 355 618V662Q355 677 343 684Q332 690 307 690H96Q40 690 40 731Q40 773 96 773V773V773ZM554 694Q554 735 572 754Q591 773 633 773H898Q954 773 954 734Q954 696 898 696H667Q643 696 632 688Q621 681 621 664V618Q621 601 632 593Q643 586 667 586H898Q954 586 954 551Q954 515 898 515H633Q591 515 572 534Q554 553 554 594V694V694ZM229 407V342H761V407H229V407ZM229 270V244Q229 223 240 213Q250 204 275 204H713Q737 204 749 213Q761 223 761 244V270H229V270V271V270Z" /></g></g><g transform="translate(1024,1024)"><g transform="scale(1,-1) translate(0,-820)"><path stroke="none" fill="white" d="M110 716V714H436V716Q436 771 480 771Q524 771 524 716V714H884V740Q884 763 920 763Q956 763 956 740V320Q956 280 937 261Q919 242 878 242H114Q73 242 55 261Q36 280 36 320V716Q36 771 73 771Q110 771 110 716V716V716ZM110 632V576H884V632H110V632ZM110 503V451H884V503H110V503ZM110 381V353Q110 332 121 323Q132 314 156 314H836Q860 314 872 323Q884 332 884 353V381H110V381ZM36 113Q36 155 55 174Q73 192 114 192H395Q451 192 451 152Q451 111 395 111H156Q132 111 121 100Q110 89 110 65V-4Q110 -29 120 -38Q131 -47 156 -44L329 -18V43Q329 99 368 99Q408 99 408 43V-26Q408 -51 419 -63Q430 -75 454 -75H578V63Q578 99 620 99Q661 99 661 63V61H836Q859 61 872 65Q884 69 884 75V99Q884 105 872 108Q860 111 836 111H576Q519 111 519 152Q519 192 576 192H878Q919 192 937 174Q956 155 956 113V59Q956 18 937 0Q919 -18 878 -18H661V-75H902Q958 -75 958 -111Q958 -147 902 -147H412Q370 -147 351 -133Q333 -120 333 -91V-89L114 -123Q73 -129 55 -113Q36 -97 36 -57V113V113V114V113Z" /></g></g></g>
  </mask>
</svg>